<svg width="882" height="193" viewBox="0 0 882 193" fill="none" xmlns="http://www.w3.org/2000/svg">
<path d="M86.952 192.84C75.0053 192.84 63.784 190.749 53.288 186.568C42.8773 182.301 33.704 176.072 25.768 167.88C17.9173 159.688 11.7733 149.661 7.336 137.8C2.89867 125.853 0.68 112.2 0.68 96.84C0.68 76.7013 4.43467 59.5067 11.944 45.256C19.4533 30.92 29.736 19.9547 42.792 12.36C55.848 4.67999 70.568 0.839996 86.952 0.839996C109.651 0.839996 127.613 6.13066 140.84 16.712C154.152 27.208 163.155 41.9707 167.848 61L136.36 65.992C132.861 55.0693 127.144 46.3653 119.208 39.88C111.272 33.3093 101.16 30.024 88.872 30.024C76.4987 29.8533 66.216 32.5413 58.024 38.088C49.832 43.6347 43.6453 51.4427 39.464 61.512C35.368 71.5813 33.32 83.3573 33.32 96.84C33.32 110.323 35.368 122.056 39.464 132.04C43.56 141.939 49.704 149.661 57.896 155.208C66.1733 160.755 76.4987 163.613 88.872 163.784C98.1733 163.869 106.323 162.205 113.32 158.792C120.317 155.293 126.035 150.045 130.472 143.048C134.909 135.965 137.896 127.133 139.432 116.552H106.92V92.36H172.2C172.371 93.7253 172.499 95.7307 172.584 98.376C172.669 101.021 172.712 102.6 172.712 103.112C172.712 120.52 169.256 136.008 162.344 149.576C155.517 163.059 145.704 173.64 132.904 181.32C120.104 189 104.787 192.84 86.952 192.84ZM198.42 189V4.67999H274.58C276.372 4.67999 278.676 4.76532 281.492 4.93599C284.308 5.02133 286.911 5.27733 289.3 5.70399C299.967 7.32532 308.756 10.8667 315.668 16.328C322.665 21.7893 327.828 28.7013 331.156 37.064C334.569 45.3413 336.276 54.5573 336.276 64.712C336.276 74.7813 334.569 83.9973 331.156 92.36C327.743 100.637 322.537 107.507 315.54 112.968C308.628 118.429 299.881 121.971 289.3 123.592C286.911 123.933 284.265 124.189 281.364 124.36C278.548 124.531 276.287 124.616 274.58 124.616H229.268V189H198.42ZM229.268 95.816H273.3C275.007 95.816 276.927 95.7307 279.06 95.56C281.193 95.3893 283.156 95.048 284.948 94.536C290.068 93.256 294.079 90.9947 296.98 87.752C299.967 84.5093 302.057 80.84 303.252 76.744C304.532 72.648 305.172 68.6373 305.172 64.712C305.172 60.7867 304.532 56.776 303.252 52.68C302.057 48.4987 299.967 44.7867 296.98 41.544C294.079 38.3013 290.068 36.04 284.948 34.76C283.156 34.248 281.193 33.9493 279.06 33.864C276.927 33.6933 275.007 33.608 273.3 33.608H229.268V95.816ZM406.208 189V33.608H346.56V4.67999H496.704V33.608H437.056V189H406.208ZM489.11 120.392V96.2H565.91V120.392H489.11ZM672.714 189V158.536H591.05V129.736L650.058 4.67999H685.258L626.25 129.736H672.714V81.736H703.946V129.736H721.226V158.536H703.946V189H672.714ZM812.976 192.84C799.152 192.84 787.077 189.725 776.752 183.496C766.427 177.267 758.405 168.691 752.688 157.768C747.056 146.76 744.24 134.131 744.24 119.88C744.24 105.373 747.141 92.6587 752.944 81.736C758.747 70.8133 766.811 62.28 777.136 56.136C787.461 49.992 799.408 46.92 812.976 46.92C826.885 46.92 839.003 50.0347 849.328 56.264C859.653 62.4933 867.675 71.112 873.392 82.12C879.109 93.0427 881.968 105.629 881.968 119.88C881.968 134.216 879.067 146.888 873.264 157.896C867.547 168.819 859.525 177.395 849.2 183.624C838.875 189.768 826.8 192.84 812.976 192.84ZM812.976 163.912C825.264 163.912 834.395 159.816 840.368 151.624C846.341 143.432 849.328 132.851 849.328 119.88C849.328 106.483 846.299 95.816 840.24 87.88C834.181 79.8587 825.093 75.848 812.976 75.848C804.699 75.848 797.872 77.7253 792.496 81.48C787.205 85.1493 783.28 90.312 780.72 96.968C778.16 103.539 776.88 111.176 776.88 119.88C776.88 133.277 779.909 143.987 785.968 152.008C792.112 159.944 801.115 163.912 812.976 163.912Z" fill="white"/>
</svg>
